<!DOCTYPE svg PUBLIC "-//W3C//DTD SVG 1.1//EN" "http://www.w3.org/Graphics/SVG/1.1/DTD/svg11.dtd">

<svg height="200px" width="200px" version="1.1" id="Layer_1" xmlns="http://www.w3.org/2000/svg" xmlns:xlink="http://www.w3.org/1999/xlink" viewBox="0 0 512 512">

<g stroke-width="0"/>

<g stroke-linecap="round" stroke-linejoin="round"/>

<g> <g> <polygon style="fill:#c7e0ff;" points="312.889,271.946 256,271.946 199.111,271.946 85.333,328.835 85.333,357.279 256,357.279 426.955,357.279 426.955,328.835 "/> <polygon style="fill:#c7e0ff;" points="199.111,271.946 85.333,328.835 85.333,357.279 256,357.279 256,271.946 "/> </g> <polygon style="fill:#b1d1ff;" points="426.955,328.835 312.889,271.946 256,271.946 256,357.279 426.955,357.279 "/> <path style="fill:#91baea;" d="M341.333,113.778C273.527,86.195,256,142.222,256,142.222s-17.527-56.027-85.333-28.444 s-85.621,28.444-85.621,28.444v199.111c0,0,17.815-0.862,85.621-28.444S256,341.333,256,341.333s17.527-56.027,85.333-28.444 s85.621,28.444,85.621,28.444V142.222C426.955,142.222,409.14,141.36,341.333,113.778z"/> <path style="fill:#adcaed;" d="M85.045,341.333c0,0,17.815-0.862,85.621-28.444S256,341.333,256,341.333V142.222 c0,0-17.527-56.027-85.333-28.444s-85.621,28.444-85.621,28.444V341.333z"/> <path style="fill:#91baea;" d="M426.955,341.333c0,0-17.815-0.862-85.621-28.444S256,341.333,256,341.333V142.222 c0,0,17.527-56.027,85.333-28.444s85.621,28.444,85.621,28.444L426.955,341.333L426.955,341.333z"/> </g>

</svg>